<?xml version="1.0" encoding="utf-8" standalone="no"?>
<!DOCTYPE svg PUBLIC "-//W3C//DTD SVG 1.1//EN"
  "http://www.w3.org/Graphics/SVG/1.1/DTD/svg11.dtd">
<svg xmlns:xlink="http://www.w3.org/1999/xlink" width="244.907296pt" height="188.31594pt" viewBox="0 0 244.907296 188.31594" xmlns="http://www.w3.org/2000/svg" version="1.1">
 <metadata>
  <rdf:RDF xmlns:dc="http://purl.org/dc/elements/1.1/" xmlns:cc="http://creativecommons.org/ns#" xmlns:rdf="http://www.w3.org/1999/02/22-rdf-syntax-ns#">
   <cc:Work>
    <dc:type rdf:resource="http://purl.org/dc/dcmitype/StillImage"/>
    <dc:date>2025-08-04T12:01:19.143403</dc:date>
    <dc:format>image/svg+xml</dc:format>
    <dc:creator>
     <cc:Agent>
      <dc:title>Matplotlib v3.7.4, https://matplotlib.org/</dc:title>
     </cc:Agent>
    </dc:creator>
   </cc:Work>
  </rdf:RDF>
 </metadata>
 <defs>
  <style type="text/css">*{stroke-linejoin: round; stroke-linecap: butt}</style>
 </defs>
 <g id="figure_1">
  <g id="patch_1">
   <path d="M 0 188.31594 
L 244.907296 188.31594 
L 244.907296 0 
L 0 0 
z
" style="fill: #ffffff"/>
  </g>
  <g id="axes_1">
   <g id="patch_2">
    <path d="M 39.342989 156.814669 
L 236.874989 156.814669 
L 236.874989 9.621469 
L 39.342989 9.621469 
z
" style="fill: #ffffff"/>
   </g>
   <g id="matplotlib.axis_1">
    <g id="xtick_1">
     <g id="line2d_1">
      <path d="M 39.342989 156.814669 
L 39.342989 9.621469 
" clip-path="url(#p845c5f17ca)" style="fill: none; stroke: #b0b0b0; stroke-width: 0.2; stroke-linecap: square"/>
     </g>
     <g id="line2d_2">
      <defs>
       <path id="m691377a01b" d="M 0 0 
L 0 3.5 
" style="stroke: #000000; stroke-width: 0.2"/>
      </defs>
      <g>
       <use xlink:href="#m691377a01b" x="39.342989" y="156.814669" style="stroke: #000000; stroke-width: 0.2"/>
      </g>
     </g>
     <g id="text_1">
      <!-- $10^{-5}$ -->
      <g transform="translate(30.978443 168.786078) scale(0.07 -0.07)">
       <defs>
        <path id="CMR17-31" d="M 1702 4058 
C 1702 4192 1696 4192 1606 4192 
C 1357 3916 979 3827 621 3827 
C 602 3827 570 3827 563 3808 
C 557 3795 557 3782 557 3648 
C 755 3648 1088 3686 1344 3839 
L 1344 461 
C 1344 236 1331 160 781 160 
L 589 160 
L 589 0 
C 896 0 1216 0 1523 0 
C 1830 0 2150 0 2458 0 
L 2458 160 
L 2266 160 
C 1715 160 1702 230 1702 458 
L 1702 4058 
z
" transform="scale(0.015625)"/>
        <path id="CMR17-30" d="M 2688 2025 
C 2688 2416 2682 3080 2413 3591 
C 2176 4039 1798 4198 1466 4198 
C 1158 4198 768 4058 525 3597 
C 269 3118 243 2524 243 2025 
C 243 1661 250 1106 448 619 
C 723 -39 1216 -128 1466 -128 
C 1760 -128 2208 -7 2470 600 
C 2662 1042 2688 1559 2688 2025 
z
M 1466 -26 
C 1056 -26 813 325 723 812 
C 653 1188 653 1738 653 2096 
C 653 2588 653 2997 736 3387 
C 858 3929 1216 4096 1466 4096 
C 1728 4096 2067 3923 2189 3400 
C 2272 3036 2278 2607 2278 2096 
C 2278 1680 2278 1169 2202 792 
C 2067 95 1690 -26 1466 -26 
z
" transform="scale(0.015625)"/>
        <path id="CMSY10-0" d="M 4218 1472 
C 4326 1472 4442 1472 4442 1600 
C 4442 1728 4326 1728 4218 1728 
L 755 1728 
C 646 1728 531 1728 531 1600 
C 531 1472 646 1472 755 1472 
L 4218 1472 
z
" transform="scale(0.015625)"/>
        <path id="CMR17-35" d="M 730 3692 
C 794 3666 1056 3584 1325 3584 
C 1920 3584 2246 3911 2432 4100 
C 2432 4157 2432 4192 2394 4192 
C 2387 4192 2374 4192 2323 4163 
C 2099 4058 1837 3973 1517 3973 
C 1325 3973 1037 3999 723 4139 
C 653 4171 640 4171 634 4171 
C 602 4171 595 4164 595 4037 
L 595 2203 
C 595 2089 595 2057 659 2057 
C 691 2057 704 2070 736 2114 
C 941 2401 1222 2522 1542 2522 
C 1766 2522 2246 2382 2246 1289 
C 2246 1085 2246 715 2054 421 
C 1894 159 1645 25 1370 25 
C 947 25 518 320 403 814 
C 429 807 480 795 506 795 
C 589 795 749 840 749 1038 
C 749 1210 627 1280 506 1280 
C 358 1280 262 1190 262 1011 
C 262 454 704 -128 1382 -128 
C 2042 -128 2669 440 2669 1264 
C 2669 2030 2170 2624 1549 2624 
C 1222 2624 947 2503 730 2274 
L 730 3692 
z
" transform="scale(0.015625)"/>
       </defs>
       <use xlink:href="#CMR17-31" transform="scale(0.996264)"/>
       <use xlink:href="#CMR17-30" transform="translate(45.690477 0) scale(0.996264)"/>
       <use xlink:href="#CMSY10-0" transform="translate(91.380954 36.153639) scale(0.697382)"/>
       <use xlink:href="#CMR17-35" transform="translate(145.621947 36.153639) scale(0.697382)"/>
      </g>
     </g>
    </g>
    <g id="xtick_2">
     <g id="line2d_3">
      <path d="M 55.401156 156.814669 
L 55.401156 9.621469 
" clip-path="url(#p845c5f17ca)" style="fill: none; stroke: #b0b0b0; stroke-width: 0.2; stroke-linecap: square"/>
     </g>
     <g id="line2d_4">
      <g>
       <use xlink:href="#m691377a01b" x="55.401156" y="156.814669" style="stroke: #000000; stroke-width: 0.2"/>
      </g>
     </g>
    </g>
    <g id="xtick_3">
     <g id="line2d_5">
      <path d="M 71.459324 156.814669 
L 71.459324 9.621469 
" clip-path="url(#p845c5f17ca)" style="fill: none; stroke: #b0b0b0; stroke-width: 0.2; stroke-linecap: square"/>
     </g>
     <g id="line2d_6">
      <g>
       <use xlink:href="#m691377a01b" x="71.459324" y="156.814669" style="stroke: #000000; stroke-width: 0.2"/>
      </g>
     </g>
     <g id="text_2">
      <!-- $10^{-3}$ -->
      <g transform="translate(63.094778 168.786078) scale(0.07 -0.07)">
       <defs>
        <path id="CMR17-33" d="M 1414 2157 
C 1984 2157 2234 1662 2234 1090 
C 2234 320 1824 25 1453 25 
C 1114 25 563 194 390 693 
C 422 680 454 680 486 680 
C 640 680 755 782 755 948 
C 755 1133 614 1216 486 1216 
C 378 1216 211 1165 211 926 
C 211 335 787 -128 1466 -128 
C 2176 -128 2720 430 2720 1085 
C 2720 1707 2208 2157 1600 2227 
C 2086 2328 2554 2756 2554 3329 
C 2554 3820 2048 4179 1472 4179 
C 890 4179 378 3829 378 3329 
C 378 3110 544 3072 627 3072 
C 762 3072 877 3155 877 3321 
C 877 3486 762 3569 627 3569 
C 602 3569 570 3569 544 3557 
C 730 3959 1235 4032 1459 4032 
C 1683 4032 2106 3925 2106 3320 
C 2106 3143 2080 2828 1862 2550 
C 1670 2304 1453 2304 1242 2284 
C 1210 2284 1062 2269 1037 2269 
C 992 2263 966 2257 966 2208 
C 966 2163 973 2157 1101 2157 
L 1414 2157 
z
" transform="scale(0.015625)"/>
       </defs>
       <use xlink:href="#CMR17-31" transform="scale(0.996264)"/>
       <use xlink:href="#CMR17-30" transform="translate(45.690477 0) scale(0.996264)"/>
       <use xlink:href="#CMSY10-0" transform="translate(91.380954 36.153639) scale(0.697382)"/>
       <use xlink:href="#CMR17-33" transform="translate(145.621947 36.153639) scale(0.697382)"/>
      </g>
     </g>
    </g>
    <g id="xtick_4">
     <g id="line2d_7">
      <path d="M 87.517491 156.814669 
L 87.517491 9.621469 
" clip-path="url(#p845c5f17ca)" style="fill: none; stroke: #b0b0b0; stroke-width: 0.2; stroke-linecap: square"/>
     </g>
     <g id="line2d_8">
      <g>
       <use xlink:href="#m691377a01b" x="87.517491" y="156.814669" style="stroke: #000000; stroke-width: 0.2"/>
      </g>
     </g>
    </g>
    <g id="xtick_5">
     <g id="line2d_9">
      <path d="M 103.575659 156.814669 
L 103.575659 9.621469 
" clip-path="url(#p845c5f17ca)" style="fill: none; stroke: #b0b0b0; stroke-width: 0.2; stroke-linecap: square"/>
     </g>
     <g id="line2d_10">
      <g>
       <use xlink:href="#m691377a01b" x="103.575659" y="156.814669" style="stroke: #000000; stroke-width: 0.2"/>
      </g>
     </g>
     <g id="text_3">
      <!-- $10^{-1}$ -->
      <g transform="translate(95.211113 168.786078) scale(0.07 -0.07)">
       <use xlink:href="#CMR17-31" transform="scale(0.996264)"/>
       <use xlink:href="#CMR17-30" transform="translate(45.690477 0) scale(0.996264)"/>
       <use xlink:href="#CMSY10-0" transform="translate(91.380954 36.153639) scale(0.697382)"/>
       <use xlink:href="#CMR17-31" transform="translate(145.621947 36.153639) scale(0.697382)"/>
      </g>
     </g>
    </g>
    <g id="xtick_6">
     <g id="line2d_11">
      <path d="M 119.633826 156.814669 
L 119.633826 9.621469 
" clip-path="url(#p845c5f17ca)" style="fill: none; stroke: #b0b0b0; stroke-width: 0.2; stroke-linecap: square"/>
     </g>
     <g id="line2d_12">
      <g>
       <use xlink:href="#m691377a01b" x="119.633826" y="156.814669" style="stroke: #000000; stroke-width: 0.2"/>
      </g>
     </g>
    </g>
    <g id="xtick_7">
     <g id="line2d_13">
      <path d="M 135.691994 156.814669 
L 135.691994 9.621469 
" clip-path="url(#p845c5f17ca)" style="fill: none; stroke: #b0b0b0; stroke-width: 0.2; stroke-linecap: square"/>
     </g>
     <g id="line2d_14">
      <g>
       <use xlink:href="#m691377a01b" x="135.691994" y="156.814669" style="stroke: #000000; stroke-width: 0.2"/>
      </g>
     </g>
     <g id="text_4">
      <!-- $10^{1}$ -->
      <g transform="translate(130.025696 168.675348) scale(0.07 -0.07)">
       <use xlink:href="#CMR17-31" transform="scale(0.996264)"/>
       <use xlink:href="#CMR17-30" transform="translate(45.690477 0) scale(0.996264)"/>
       <use xlink:href="#CMR17-31" transform="translate(91.380954 36.153639) scale(0.697382)"/>
      </g>
     </g>
    </g>
    <g id="xtick_8">
     <g id="line2d_15">
      <path d="M 151.750161 156.814669 
L 151.750161 9.621469 
" clip-path="url(#p845c5f17ca)" style="fill: none; stroke: #b0b0b0; stroke-width: 0.2; stroke-linecap: square"/>
     </g>
     <g id="line2d_16">
      <g>
       <use xlink:href="#m691377a01b" x="151.750161" y="156.814669" style="stroke: #000000; stroke-width: 0.2"/>
      </g>
     </g>
    </g>
    <g id="xtick_9">
     <g id="line2d_17">
      <path d="M 167.808329 156.814669 
L 167.808329 9.621469 
" clip-path="url(#p845c5f17ca)" style="fill: none; stroke: #b0b0b0; stroke-width: 0.2; stroke-linecap: square"/>
     </g>
     <g id="line2d_18">
      <g>
       <use xlink:href="#m691377a01b" x="167.808329" y="156.814669" style="stroke: #000000; stroke-width: 0.2"/>
      </g>
     </g>
     <g id="text_5">
      <!-- $10^{3}$ -->
      <g transform="translate(162.142031 168.675348) scale(0.07 -0.07)">
       <use xlink:href="#CMR17-31" transform="scale(0.996264)"/>
       <use xlink:href="#CMR17-30" transform="translate(45.690477 0) scale(0.996264)"/>
       <use xlink:href="#CMR17-33" transform="translate(91.380954 36.153639) scale(0.697382)"/>
      </g>
     </g>
    </g>
    <g id="xtick_10">
     <g id="line2d_19">
      <path d="M 183.866496 156.814669 
L 183.866496 9.621469 
" clip-path="url(#p845c5f17ca)" style="fill: none; stroke: #b0b0b0; stroke-width: 0.2; stroke-linecap: square"/>
     </g>
     <g id="line2d_20">
      <g>
       <use xlink:href="#m691377a01b" x="183.866496" y="156.814669" style="stroke: #000000; stroke-width: 0.2"/>
      </g>
     </g>
    </g>
    <g id="xtick_11">
     <g id="line2d_21">
      <path d="M 199.924663 156.814669 
L 199.924663 9.621469 
" clip-path="url(#p845c5f17ca)" style="fill: none; stroke: #b0b0b0; stroke-width: 0.2; stroke-linecap: square"/>
     </g>
     <g id="line2d_22">
      <g>
       <use xlink:href="#m691377a01b" x="199.924663" y="156.814669" style="stroke: #000000; stroke-width: 0.2"/>
      </g>
     </g>
     <g id="text_6">
      <!-- $10^{5}$ -->
      <g transform="translate(194.258366 168.675348) scale(0.07 -0.07)">
       <use xlink:href="#CMR17-31" transform="scale(0.996264)"/>
       <use xlink:href="#CMR17-30" transform="translate(45.690477 0) scale(0.996264)"/>
       <use xlink:href="#CMR17-35" transform="translate(91.380954 36.153639) scale(0.697382)"/>
      </g>
     </g>
    </g>
    <g id="xtick_12">
     <g id="line2d_23">
      <path d="M 215.982831 156.814669 
L 215.982831 9.621469 
" clip-path="url(#p845c5f17ca)" style="fill: none; stroke: #b0b0b0; stroke-width: 0.2; stroke-linecap: square"/>
     </g>
     <g id="line2d_24">
      <g>
       <use xlink:href="#m691377a01b" x="215.982831" y="156.814669" style="stroke: #000000; stroke-width: 0.2"/>
      </g>
     </g>
    </g>
    <g id="xtick_13">
     <g id="line2d_25">
      <path d="M 232.040998 156.814669 
L 232.040998 9.621469 
" clip-path="url(#p845c5f17ca)" style="fill: none; stroke: #b0b0b0; stroke-width: 0.2; stroke-linecap: square"/>
     </g>
     <g id="line2d_26">
      <g>
       <use xlink:href="#m691377a01b" x="232.040998" y="156.814669" style="stroke: #000000; stroke-width: 0.2"/>
      </g>
     </g>
     <g id="text_7">
      <!-- $10^{7}$ -->
      <g transform="translate(226.374701 168.675348) scale(0.07 -0.07)">
       <defs>
        <path id="CMR17-37" d="M 2886 3941 
L 2886 4081 
L 1382 4081 
C 634 4081 621 4165 595 4288 
L 480 4288 
L 294 3094 
L 410 3094 
C 429 3215 474 3540 550 3661 
C 589 3712 1062 3712 1171 3712 
L 2579 3712 
L 1869 2661 
C 1395 1954 1069 999 1069 165 
C 1069 89 1069 -128 1299 -128 
C 1530 -128 1530 89 1530 171 
L 1530 465 
C 1530 1508 1709 2196 2003 2636 
L 2886 3941 
z
" transform="scale(0.015625)"/>
       </defs>
       <use xlink:href="#CMR17-31" transform="scale(0.996264)"/>
       <use xlink:href="#CMR17-30" transform="translate(45.690477 0) scale(0.996264)"/>
       <use xlink:href="#CMR17-37" transform="translate(91.380954 36.153639) scale(0.697382)"/>
      </g>
     </g>
    </g>
    <g id="xtick_14">
     <g id="line2d_27">
      <defs>
       <path id="m0a942e972f" d="M 0 0 
L 0 2 
" style="stroke: #000000; stroke-width: 0.2"/>
      </defs>
      <g>
       <use xlink:href="#m0a942e972f" x="44.176979" y="156.814669" style="stroke: #000000; stroke-width: 0.2"/>
      </g>
     </g>
    </g>
    <g id="xtick_15">
     <g id="line2d_28">
      <g>
       <use xlink:href="#m0a942e972f" x="47.004682" y="156.814669" style="stroke: #000000; stroke-width: 0.2"/>
      </g>
     </g>
    </g>
    <g id="xtick_16">
     <g id="line2d_29">
      <g>
       <use xlink:href="#m0a942e972f" x="49.010969" y="156.814669" style="stroke: #000000; stroke-width: 0.2"/>
      </g>
     </g>
    </g>
    <g id="xtick_17">
     <g id="line2d_30">
      <g>
       <use xlink:href="#m0a942e972f" x="50.567166" y="156.814669" style="stroke: #000000; stroke-width: 0.2"/>
      </g>
     </g>
    </g>
    <g id="xtick_18">
     <g id="line2d_31">
      <g>
       <use xlink:href="#m0a942e972f" x="51.838672" y="156.814669" style="stroke: #000000; stroke-width: 0.2"/>
      </g>
     </g>
    </g>
    <g id="xtick_19">
     <g id="line2d_32">
      <g>
       <use xlink:href="#m0a942e972f" x="52.913714" y="156.814669" style="stroke: #000000; stroke-width: 0.2"/>
      </g>
     </g>
    </g>
    <g id="xtick_20">
     <g id="line2d_33">
      <g>
       <use xlink:href="#m0a942e972f" x="53.844959" y="156.814669" style="stroke: #000000; stroke-width: 0.2"/>
      </g>
     </g>
    </g>
    <g id="xtick_21">
     <g id="line2d_34">
      <g>
       <use xlink:href="#m0a942e972f" x="54.666375" y="156.814669" style="stroke: #000000; stroke-width: 0.2"/>
      </g>
     </g>
    </g>
    <g id="xtick_22">
     <g id="line2d_35">
      <g>
       <use xlink:href="#m0a942e972f" x="60.235146" y="156.814669" style="stroke: #000000; stroke-width: 0.2"/>
      </g>
     </g>
    </g>
    <g id="xtick_23">
     <g id="line2d_36">
      <g>
       <use xlink:href="#m0a942e972f" x="63.062849" y="156.814669" style="stroke: #000000; stroke-width: 0.2"/>
      </g>
     </g>
    </g>
    <g id="xtick_24">
     <g id="line2d_37">
      <g>
       <use xlink:href="#m0a942e972f" x="65.069136" y="156.814669" style="stroke: #000000; stroke-width: 0.2"/>
      </g>
     </g>
    </g>
    <g id="xtick_25">
     <g id="line2d_38">
      <g>
       <use xlink:href="#m0a942e972f" x="66.625333" y="156.814669" style="stroke: #000000; stroke-width: 0.2"/>
      </g>
     </g>
    </g>
    <g id="xtick_26">
     <g id="line2d_39">
      <g>
       <use xlink:href="#m0a942e972f" x="67.896839" y="156.814669" style="stroke: #000000; stroke-width: 0.2"/>
      </g>
     </g>
    </g>
    <g id="xtick_27">
     <g id="line2d_40">
      <g>
       <use xlink:href="#m0a942e972f" x="68.971882" y="156.814669" style="stroke: #000000; stroke-width: 0.2"/>
      </g>
     </g>
    </g>
    <g id="xtick_28">
     <g id="line2d_41">
      <g>
       <use xlink:href="#m0a942e972f" x="69.903126" y="156.814669" style="stroke: #000000; stroke-width: 0.2"/>
      </g>
     </g>
    </g>
    <g id="xtick_29">
     <g id="line2d_42">
      <g>
       <use xlink:href="#m0a942e972f" x="70.724542" y="156.814669" style="stroke: #000000; stroke-width: 0.2"/>
      </g>
     </g>
    </g>
    <g id="xtick_30">
     <g id="line2d_43">
      <g>
       <use xlink:href="#m0a942e972f" x="76.293314" y="156.814669" style="stroke: #000000; stroke-width: 0.2"/>
      </g>
     </g>
    </g>
    <g id="xtick_31">
     <g id="line2d_44">
      <g>
       <use xlink:href="#m0a942e972f" x="79.121017" y="156.814669" style="stroke: #000000; stroke-width: 0.2"/>
      </g>
     </g>
    </g>
    <g id="xtick_32">
     <g id="line2d_45">
      <g>
       <use xlink:href="#m0a942e972f" x="81.127304" y="156.814669" style="stroke: #000000; stroke-width: 0.2"/>
      </g>
     </g>
    </g>
    <g id="xtick_33">
     <g id="line2d_46">
      <g>
       <use xlink:href="#m0a942e972f" x="82.683501" y="156.814669" style="stroke: #000000; stroke-width: 0.2"/>
      </g>
     </g>
    </g>
    <g id="xtick_34">
     <g id="line2d_47">
      <g>
       <use xlink:href="#m0a942e972f" x="83.955007" y="156.814669" style="stroke: #000000; stroke-width: 0.2"/>
      </g>
     </g>
    </g>
    <g id="xtick_35">
     <g id="line2d_48">
      <g>
       <use xlink:href="#m0a942e972f" x="85.030049" y="156.814669" style="stroke: #000000; stroke-width: 0.2"/>
      </g>
     </g>
    </g>
    <g id="xtick_36">
     <g id="line2d_49">
      <g>
       <use xlink:href="#m0a942e972f" x="85.961294" y="156.814669" style="stroke: #000000; stroke-width: 0.2"/>
      </g>
     </g>
    </g>
    <g id="xtick_37">
     <g id="line2d_50">
      <g>
       <use xlink:href="#m0a942e972f" x="86.78271" y="156.814669" style="stroke: #000000; stroke-width: 0.2"/>
      </g>
     </g>
    </g>
    <g id="xtick_38">
     <g id="line2d_51">
      <g>
       <use xlink:href="#m0a942e972f" x="92.351481" y="156.814669" style="stroke: #000000; stroke-width: 0.2"/>
      </g>
     </g>
    </g>
    <g id="xtick_39">
     <g id="line2d_52">
      <g>
       <use xlink:href="#m0a942e972f" x="95.179184" y="156.814669" style="stroke: #000000; stroke-width: 0.2"/>
      </g>
     </g>
    </g>
    <g id="xtick_40">
     <g id="line2d_53">
      <g>
       <use xlink:href="#m0a942e972f" x="97.185471" y="156.814669" style="stroke: #000000; stroke-width: 0.2"/>
      </g>
     </g>
    </g>
    <g id="xtick_41">
     <g id="line2d_54">
      <g>
       <use xlink:href="#m0a942e972f" x="98.741668" y="156.814669" style="stroke: #000000; stroke-width: 0.2"/>
      </g>
     </g>
    </g>
    <g id="xtick_42">
     <g id="line2d_55">
      <g>
       <use xlink:href="#m0a942e972f" x="100.013174" y="156.814669" style="stroke: #000000; stroke-width: 0.2"/>
      </g>
     </g>
    </g>
    <g id="xtick_43">
     <g id="line2d_56">
      <g>
       <use xlink:href="#m0a942e972f" x="101.088217" y="156.814669" style="stroke: #000000; stroke-width: 0.2"/>
      </g>
     </g>
    </g>
    <g id="xtick_44">
     <g id="line2d_57">
      <g>
       <use xlink:href="#m0a942e972f" x="102.019461" y="156.814669" style="stroke: #000000; stroke-width: 0.2"/>
      </g>
     </g>
    </g>
    <g id="xtick_45">
     <g id="line2d_58">
      <g>
       <use xlink:href="#m0a942e972f" x="102.840877" y="156.814669" style="stroke: #000000; stroke-width: 0.2"/>
      </g>
     </g>
    </g>
    <g id="xtick_46">
     <g id="line2d_59">
      <g>
       <use xlink:href="#m0a942e972f" x="108.409649" y="156.814669" style="stroke: #000000; stroke-width: 0.2"/>
      </g>
     </g>
    </g>
    <g id="xtick_47">
     <g id="line2d_60">
      <g>
       <use xlink:href="#m0a942e972f" x="111.237352" y="156.814669" style="stroke: #000000; stroke-width: 0.2"/>
      </g>
     </g>
    </g>
    <g id="xtick_48">
     <g id="line2d_61">
      <g>
       <use xlink:href="#m0a942e972f" x="113.243639" y="156.814669" style="stroke: #000000; stroke-width: 0.2"/>
      </g>
     </g>
    </g>
    <g id="xtick_49">
     <g id="line2d_62">
      <g>
       <use xlink:href="#m0a942e972f" x="114.799836" y="156.814669" style="stroke: #000000; stroke-width: 0.2"/>
      </g>
     </g>
    </g>
    <g id="xtick_50">
     <g id="line2d_63">
      <g>
       <use xlink:href="#m0a942e972f" x="116.071342" y="156.814669" style="stroke: #000000; stroke-width: 0.2"/>
      </g>
     </g>
    </g>
    <g id="xtick_51">
     <g id="line2d_64">
      <g>
       <use xlink:href="#m0a942e972f" x="117.146384" y="156.814669" style="stroke: #000000; stroke-width: 0.2"/>
      </g>
     </g>
    </g>
    <g id="xtick_52">
     <g id="line2d_65">
      <g>
       <use xlink:href="#m0a942e972f" x="118.077629" y="156.814669" style="stroke: #000000; stroke-width: 0.2"/>
      </g>
     </g>
    </g>
    <g id="xtick_53">
     <g id="line2d_66">
      <g>
       <use xlink:href="#m0a942e972f" x="118.899045" y="156.814669" style="stroke: #000000; stroke-width: 0.2"/>
      </g>
     </g>
    </g>
    <g id="xtick_54">
     <g id="line2d_67">
      <g>
       <use xlink:href="#m0a942e972f" x="124.467816" y="156.814669" style="stroke: #000000; stroke-width: 0.2"/>
      </g>
     </g>
    </g>
    <g id="xtick_55">
     <g id="line2d_68">
      <g>
       <use xlink:href="#m0a942e972f" x="127.295519" y="156.814669" style="stroke: #000000; stroke-width: 0.2"/>
      </g>
     </g>
    </g>
    <g id="xtick_56">
     <g id="line2d_69">
      <g>
       <use xlink:href="#m0a942e972f" x="129.301806" y="156.814669" style="stroke: #000000; stroke-width: 0.2"/>
      </g>
     </g>
    </g>
    <g id="xtick_57">
     <g id="line2d_70">
      <g>
       <use xlink:href="#m0a942e972f" x="130.858003" y="156.814669" style="stroke: #000000; stroke-width: 0.2"/>
      </g>
     </g>
    </g>
    <g id="xtick_58">
     <g id="line2d_71">
      <g>
       <use xlink:href="#m0a942e972f" x="132.129509" y="156.814669" style="stroke: #000000; stroke-width: 0.2"/>
      </g>
     </g>
    </g>
    <g id="xtick_59">
     <g id="line2d_72">
      <g>
       <use xlink:href="#m0a942e972f" x="133.204552" y="156.814669" style="stroke: #000000; stroke-width: 0.2"/>
      </g>
     </g>
    </g>
    <g id="xtick_60">
     <g id="line2d_73">
      <g>
       <use xlink:href="#m0a942e972f" x="134.135796" y="156.814669" style="stroke: #000000; stroke-width: 0.2"/>
      </g>
     </g>
    </g>
    <g id="xtick_61">
     <g id="line2d_74">
      <g>
       <use xlink:href="#m0a942e972f" x="134.957212" y="156.814669" style="stroke: #000000; stroke-width: 0.2"/>
      </g>
     </g>
    </g>
    <g id="xtick_62">
     <g id="line2d_75">
      <g>
       <use xlink:href="#m0a942e972f" x="140.525984" y="156.814669" style="stroke: #000000; stroke-width: 0.2"/>
      </g>
     </g>
    </g>
    <g id="xtick_63">
     <g id="line2d_76">
      <g>
       <use xlink:href="#m0a942e972f" x="143.353687" y="156.814669" style="stroke: #000000; stroke-width: 0.2"/>
      </g>
     </g>
    </g>
    <g id="xtick_64">
     <g id="line2d_77">
      <g>
       <use xlink:href="#m0a942e972f" x="145.359974" y="156.814669" style="stroke: #000000; stroke-width: 0.2"/>
      </g>
     </g>
    </g>
    <g id="xtick_65">
     <g id="line2d_78">
      <g>
       <use xlink:href="#m0a942e972f" x="146.916171" y="156.814669" style="stroke: #000000; stroke-width: 0.2"/>
      </g>
     </g>
    </g>
    <g id="xtick_66">
     <g id="line2d_79">
      <g>
       <use xlink:href="#m0a942e972f" x="148.187677" y="156.814669" style="stroke: #000000; stroke-width: 0.2"/>
      </g>
     </g>
    </g>
    <g id="xtick_67">
     <g id="line2d_80">
      <g>
       <use xlink:href="#m0a942e972f" x="149.262719" y="156.814669" style="stroke: #000000; stroke-width: 0.2"/>
      </g>
     </g>
    </g>
    <g id="xtick_68">
     <g id="line2d_81">
      <g>
       <use xlink:href="#m0a942e972f" x="150.193964" y="156.814669" style="stroke: #000000; stroke-width: 0.2"/>
      </g>
     </g>
    </g>
    <g id="xtick_69">
     <g id="line2d_82">
      <g>
       <use xlink:href="#m0a942e972f" x="151.01538" y="156.814669" style="stroke: #000000; stroke-width: 0.2"/>
      </g>
     </g>
    </g>
    <g id="xtick_70">
     <g id="line2d_83">
      <g>
       <use xlink:href="#m0a942e972f" x="156.584151" y="156.814669" style="stroke: #000000; stroke-width: 0.2"/>
      </g>
     </g>
    </g>
    <g id="xtick_71">
     <g id="line2d_84">
      <g>
       <use xlink:href="#m0a942e972f" x="159.411854" y="156.814669" style="stroke: #000000; stroke-width: 0.2"/>
      </g>
     </g>
    </g>
    <g id="xtick_72">
     <g id="line2d_85">
      <g>
       <use xlink:href="#m0a942e972f" x="161.418141" y="156.814669" style="stroke: #000000; stroke-width: 0.2"/>
      </g>
     </g>
    </g>
    <g id="xtick_73">
     <g id="line2d_86">
      <g>
       <use xlink:href="#m0a942e972f" x="162.974338" y="156.814669" style="stroke: #000000; stroke-width: 0.2"/>
      </g>
     </g>
    </g>
    <g id="xtick_74">
     <g id="line2d_87">
      <g>
       <use xlink:href="#m0a942e972f" x="164.245844" y="156.814669" style="stroke: #000000; stroke-width: 0.2"/>
      </g>
     </g>
    </g>
    <g id="xtick_75">
     <g id="line2d_88">
      <g>
       <use xlink:href="#m0a942e972f" x="165.320887" y="156.814669" style="stroke: #000000; stroke-width: 0.2"/>
      </g>
     </g>
    </g>
    <g id="xtick_76">
     <g id="line2d_89">
      <g>
       <use xlink:href="#m0a942e972f" x="166.252131" y="156.814669" style="stroke: #000000; stroke-width: 0.2"/>
      </g>
     </g>
    </g>
    <g id="xtick_77">
     <g id="line2d_90">
      <g>
       <use xlink:href="#m0a942e972f" x="167.073547" y="156.814669" style="stroke: #000000; stroke-width: 0.2"/>
      </g>
     </g>
    </g>
    <g id="xtick_78">
     <g id="line2d_91">
      <g>
       <use xlink:href="#m0a942e972f" x="172.642319" y="156.814669" style="stroke: #000000; stroke-width: 0.2"/>
      </g>
     </g>
    </g>
    <g id="xtick_79">
     <g id="line2d_92">
      <g>
       <use xlink:href="#m0a942e972f" x="175.470022" y="156.814669" style="stroke: #000000; stroke-width: 0.2"/>
      </g>
     </g>
    </g>
    <g id="xtick_80">
     <g id="line2d_93">
      <g>
       <use xlink:href="#m0a942e972f" x="177.476309" y="156.814669" style="stroke: #000000; stroke-width: 0.2"/>
      </g>
     </g>
    </g>
    <g id="xtick_81">
     <g id="line2d_94">
      <g>
       <use xlink:href="#m0a942e972f" x="179.032506" y="156.814669" style="stroke: #000000; stroke-width: 0.2"/>
      </g>
     </g>
    </g>
    <g id="xtick_82">
     <g id="line2d_95">
      <g>
       <use xlink:href="#m0a942e972f" x="180.304012" y="156.814669" style="stroke: #000000; stroke-width: 0.2"/>
      </g>
     </g>
    </g>
    <g id="xtick_83">
     <g id="line2d_96">
      <g>
       <use xlink:href="#m0a942e972f" x="181.379054" y="156.814669" style="stroke: #000000; stroke-width: 0.2"/>
      </g>
     </g>
    </g>
    <g id="xtick_84">
     <g id="line2d_97">
      <g>
       <use xlink:href="#m0a942e972f" x="182.310299" y="156.814669" style="stroke: #000000; stroke-width: 0.2"/>
      </g>
     </g>
    </g>
    <g id="xtick_85">
     <g id="line2d_98">
      <g>
       <use xlink:href="#m0a942e972f" x="183.131715" y="156.814669" style="stroke: #000000; stroke-width: 0.2"/>
      </g>
     </g>
    </g>
    <g id="xtick_86">
     <g id="line2d_99">
      <g>
       <use xlink:href="#m0a942e972f" x="188.700486" y="156.814669" style="stroke: #000000; stroke-width: 0.2"/>
      </g>
     </g>
    </g>
    <g id="xtick_87">
     <g id="line2d_100">
      <g>
       <use xlink:href="#m0a942e972f" x="191.528189" y="156.814669" style="stroke: #000000; stroke-width: 0.2"/>
      </g>
     </g>
    </g>
    <g id="xtick_88">
     <g id="line2d_101">
      <g>
       <use xlink:href="#m0a942e972f" x="193.534476" y="156.814669" style="stroke: #000000; stroke-width: 0.2"/>
      </g>
     </g>
    </g>
    <g id="xtick_89">
     <g id="line2d_102">
      <g>
       <use xlink:href="#m0a942e972f" x="195.090673" y="156.814669" style="stroke: #000000; stroke-width: 0.2"/>
      </g>
     </g>
    </g>
    <g id="xtick_90">
     <g id="line2d_103">
      <g>
       <use xlink:href="#m0a942e972f" x="196.362179" y="156.814669" style="stroke: #000000; stroke-width: 0.2"/>
      </g>
     </g>
    </g>
    <g id="xtick_91">
     <g id="line2d_104">
      <g>
       <use xlink:href="#m0a942e972f" x="197.437222" y="156.814669" style="stroke: #000000; stroke-width: 0.2"/>
      </g>
     </g>
    </g>
    <g id="xtick_92">
     <g id="line2d_105">
      <g>
       <use xlink:href="#m0a942e972f" x="198.368466" y="156.814669" style="stroke: #000000; stroke-width: 0.2"/>
      </g>
     </g>
    </g>
    <g id="xtick_93">
     <g id="line2d_106">
      <g>
       <use xlink:href="#m0a942e972f" x="199.189882" y="156.814669" style="stroke: #000000; stroke-width: 0.2"/>
      </g>
     </g>
    </g>
    <g id="xtick_94">
     <g id="line2d_107">
      <g>
       <use xlink:href="#m0a942e972f" x="204.758654" y="156.814669" style="stroke: #000000; stroke-width: 0.2"/>
      </g>
     </g>
    </g>
    <g id="xtick_95">
     <g id="line2d_108">
      <g>
       <use xlink:href="#m0a942e972f" x="207.586357" y="156.814669" style="stroke: #000000; stroke-width: 0.2"/>
      </g>
     </g>
    </g>
    <g id="xtick_96">
     <g id="line2d_109">
      <g>
       <use xlink:href="#m0a942e972f" x="209.592644" y="156.814669" style="stroke: #000000; stroke-width: 0.2"/>
      </g>
     </g>
    </g>
    <g id="xtick_97">
     <g id="line2d_110">
      <g>
       <use xlink:href="#m0a942e972f" x="211.148841" y="156.814669" style="stroke: #000000; stroke-width: 0.2"/>
      </g>
     </g>
    </g>
    <g id="xtick_98">
     <g id="line2d_111">
      <g>
       <use xlink:href="#m0a942e972f" x="212.420347" y="156.814669" style="stroke: #000000; stroke-width: 0.2"/>
      </g>
     </g>
    </g>
    <g id="xtick_99">
     <g id="line2d_112">
      <g>
       <use xlink:href="#m0a942e972f" x="213.495389" y="156.814669" style="stroke: #000000; stroke-width: 0.2"/>
      </g>
     </g>
    </g>
    <g id="xtick_100">
     <g id="line2d_113">
      <g>
       <use xlink:href="#m0a942e972f" x="214.426634" y="156.814669" style="stroke: #000000; stroke-width: 0.2"/>
      </g>
     </g>
    </g>
    <g id="xtick_101">
     <g id="line2d_114">
      <g>
       <use xlink:href="#m0a942e972f" x="215.24805" y="156.814669" style="stroke: #000000; stroke-width: 0.2"/>
      </g>
     </g>
    </g>
    <g id="xtick_102">
     <g id="line2d_115">
      <g>
       <use xlink:href="#m0a942e972f" x="220.816821" y="156.814669" style="stroke: #000000; stroke-width: 0.2"/>
      </g>
     </g>
    </g>
    <g id="xtick_103">
     <g id="line2d_116">
      <g>
       <use xlink:href="#m0a942e972f" x="223.644524" y="156.814669" style="stroke: #000000; stroke-width: 0.2"/>
      </g>
     </g>
    </g>
    <g id="xtick_104">
     <g id="line2d_117">
      <g>
       <use xlink:href="#m0a942e972f" x="225.650811" y="156.814669" style="stroke: #000000; stroke-width: 0.2"/>
      </g>
     </g>
    </g>
    <g id="xtick_105">
     <g id="line2d_118">
      <g>
       <use xlink:href="#m0a942e972f" x="227.207008" y="156.814669" style="stroke: #000000; stroke-width: 0.2"/>
      </g>
     </g>
    </g>
    <g id="xtick_106">
     <g id="line2d_119">
      <g>
       <use xlink:href="#m0a942e972f" x="228.478514" y="156.814669" style="stroke: #000000; stroke-width: 0.2"/>
      </g>
     </g>
    </g>
    <g id="xtick_107">
     <g id="line2d_120">
      <g>
       <use xlink:href="#m0a942e972f" x="229.553557" y="156.814669" style="stroke: #000000; stroke-width: 0.2"/>
      </g>
     </g>
    </g>
    <g id="xtick_108">
     <g id="line2d_121">
      <g>
       <use xlink:href="#m0a942e972f" x="230.484801" y="156.814669" style="stroke: #000000; stroke-width: 0.2"/>
      </g>
     </g>
    </g>
    <g id="xtick_109">
     <g id="line2d_122">
      <g>
       <use xlink:href="#m0a942e972f" x="231.306217" y="156.814669" style="stroke: #000000; stroke-width: 0.2"/>
      </g>
     </g>
    </g>
    <g id="xtick_110">
     <g id="line2d_123">
      <g>
       <use xlink:href="#m0a942e972f" x="236.874989" y="156.814669" style="stroke: #000000; stroke-width: 0.2"/>
      </g>
     </g>
    </g>
    <g id="text_8">
     <!-- Energy [eV] -->
     <g transform="translate(117.51597 179.372478) scale(0.07 -0.07)">
      <defs>
       <path id="CMR17-45" d="M 3885 1615 
L 3770 1615 
C 3629 676 3546 166 2419 166 
L 1530 166 
C 1274 166 1261 197 1261 414 
L 1261 2176 
L 1862 2176 
C 2464 2176 2522 1960 2522 1430 
L 2637 1430 
L 2637 3081 
L 2522 3081 
C 2522 2557 2464 2342 1862 2342 
L 1261 2342 
L 1261 3913 
C 1261 4128 1274 4160 1530 4160 
L 2406 4160 
C 3398 4160 3514 3769 3603 2929 
L 3718 2929 
L 3565 4325 
L 326 4325 
L 326 4160 
C 768 4160 838 4160 838 3874 
L 838 451 
C 838 166 768 166 326 166 
L 326 0 
L 3654 0 
L 3885 1615 
z
" transform="scale(0.015625)"/>
       <path id="CMR17-6e" d="M 2656 1933 
C 2656 2259 2592 2790 1837 2790 
C 1331 2790 1069 2400 973 2144 
L 966 2144 
L 966 2790 
L 211 2720 
L 211 2554 
C 589 2554 646 2515 646 2208 
L 646 428 
C 646 184 621 153 211 153 
L 211 -13 
C 365 0 646 0 813 0 
C 979 0 1267 0 1421 -13 
L 1421 153 
C 1011 153 986 178 986 428 
L 986 1658 
C 986 2247 1344 2688 1792 2688 
C 2266 2688 2317 2266 2317 1958 
L 2317 428 
C 2317 184 2291 153 1882 153 
L 1882 -13 
C 2035 0 2317 0 2483 0 
C 2650 0 2938 0 3091 -13 
L 3091 153 
C 2682 153 2656 178 2656 428 
L 2656 1933 
z
" transform="scale(0.015625)"/>
       <path id="CMR17-65" d="M 2438 1472 
C 2464 1498 2464 1511 2464 1576 
C 2464 2238 2118 2816 1389 2816 
C 710 2816 173 2169 173 1383 
C 173 551 781 -64 1459 -64 
C 2176 -64 2458 607 2458 740 
C 2458 784 2419 784 2406 784 
C 2362 784 2355 771 2330 696 
C 2189 265 1837 51 1504 51 
C 1229 51 954 203 781 480 
C 582 803 582 1176 582 1472 
L 2438 1472 
z
M 589 1568 
C 634 2505 1126 2714 1382 2714 
C 1818 2714 2112 2297 2118 1568 
L 589 1568 
z
" transform="scale(0.015625)"/>
       <path id="CMR17-72" d="M 960 1497 
C 960 2112 1222 2688 1702 2688 
C 1747 2688 1792 2682 1837 2662 
C 1837 2662 1696 2617 1696 2452 
C 1696 2298 1818 2234 1914 2234 
C 1990 2234 2131 2279 2131 2458 
C 2131 2663 1926 2790 1709 2790 
C 1222 2790 1011 2317 947 2093 
L 941 2093 
L 941 2790 
L 198 2720 
L 198 2554 
C 576 2554 634 2515 634 2208 
L 634 428 
C 634 184 608 153 198 153 
L 198 -13 
C 352 0 646 0 813 0 
C 998 0 1325 0 1498 -13 
L 1498 153 
C 1037 153 960 153 960 440 
L 960 1497 
z
" transform="scale(0.015625)"/>
       <path id="CMR17-67" d="M 710 1164 
C 832 1068 1043 960 1299 960 
C 1805 960 2240 1357 2240 1888 
C 2240 2054 2189 2310 1997 2509 
C 2176 2692 2438 2752 2586 2752 
C 2611 2752 2650 2752 2682 2734 
C 2656 2728 2598 2703 2598 2605 
C 2598 2527 2656 2471 2739 2471 
C 2835 2471 2886 2533 2886 2614 
C 2886 2731 2790 2854 2586 2854 
C 2330 2854 2106 2738 1926 2580 
C 1734 2753 1504 2816 1299 2816 
C 794 2816 358 2419 358 1888 
C 358 1522 570 1292 634 1228 
C 442 1004 442 743 442 711 
C 442 545 506 302 723 168 
C 390 85 128 -169 128 -486 
C 128 -943 736 -1280 1466 -1280 
C 2170 -1280 2803 -956 2803 -479 
C 2803 384 1856 384 1363 384 
C 1216 384 954 384 922 391 
C 723 423 589 602 589 826 
C 589 883 589 1024 710 1164 
z
M 1299 1068 
C 736 1068 736 1760 736 1889 
C 736 2016 736 2708 1299 2708 
C 1862 2708 1862 2016 1862 1889 
C 1862 1760 1862 1068 1299 1068 
z
M 1466 -1171 
C 826 -1171 384 -835 384 -486 
C 384 -289 493 -105 634 -4 
C 794 104 858 104 1293 104 
C 1818 104 2547 104 2547 -486 
C 2547 -835 2106 -1171 1466 -1171 
z
" transform="scale(0.015625)"/>
       <path id="CMR17-79" d="M 2496 2197 
C 2656 2586 2944 2586 3034 2586 
L 3034 2752 
C 2912 2752 2752 2752 2630 2752 
C 2496 2752 2285 2752 2157 2758 
L 2157 2592 
C 2400 2573 2406 2394 2406 2343 
C 2406 2280 2394 2248 2362 2171 
L 1664 449 
L 902 2306 
C 870 2382 870 2426 870 2433 
C 870 2573 1018 2586 1171 2586 
L 1171 2758 
C 1018 2752 742 2752 582 2752 
C 410 2752 205 2752 64 2758 
L 64 2586 
C 410 2586 448 2554 531 2350 
L 1485 15 
C 1197 -738 1030 -1178 627 -1178 
C 557 -1178 397 -1159 282 -1044 
C 429 -1031 493 -942 493 -833 
C 493 -725 416 -629 288 -629 
C 147 -629 77 -725 77 -840 
C 77 -1095 339 -1280 627 -1280 
C 998 -1280 1229 -922 1357 -604 
L 2496 2197 
z
" transform="scale(0.015625)"/>
       <path id="CMR17-5b" d="M 1504 -1600 
L 1504 -1377 
L 902 -1377 
L 902 4544 
L 1504 4544 
L 1504 4767 
L 678 4767 
L 678 -1600 
L 1504 -1600 
z
" transform="scale(0.015625)"/>
       <path id="CMR17-56" d="M 3776 3745 
C 3834 3886 3936 4160 4365 4160 
L 4365 4332 
C 4218 4319 4051 4319 3891 4319 
C 3738 4319 3475 4319 3328 4332 
L 3328 4160 
C 3648 4160 3661 3936 3661 3898 
C 3661 3827 3642 3783 3622 3732 
L 2362 446 
L 1043 3886 
C 1024 3931 1011 3963 1011 3994 
C 1011 4160 1267 4160 1402 4160 
L 1402 4319 
C 1197 4319 896 4319 685 4319 
C 518 4319 218 4319 64 4332 
L 64 4160 
C 435 4160 506 4135 582 3931 
L 2106 -26 
C 2138 -115 2144 -128 2214 -128 
C 2285 -128 2291 -115 2323 -26 
L 3776 3745 
z
" transform="scale(0.015625)"/>
       <path id="CMR17-5d" d="M 915 4767 
L 90 4767 
L 90 4544 
L 691 4544 
L 691 -1377 
L 90 -1377 
L 90 -1600 
L 915 -1600 
L 915 4767 
z
" transform="scale(0.015625)"/>
      </defs>
      <use xlink:href="#CMR17-45" transform="scale(0.996264)"/>
      <use xlink:href="#CMR17-6e" transform="translate(62.586301 0) scale(0.996264)"/>
      <use xlink:href="#CMR17-65" transform="translate(113.48167 0) scale(0.996264)"/>
      <use xlink:href="#CMR17-72" transform="translate(153.967331 0) scale(0.996264)"/>
      <use xlink:href="#CMR17-67" transform="translate(189.248099 0) scale(0.996264)"/>
      <use xlink:href="#CMR17-79" transform="translate(234.938576 0) scale(0.996264)"/>
      <use xlink:href="#CMR17-5b" transform="translate(313.307458 0) scale(0.996264)"/>
      <use xlink:href="#CMR17-65" transform="translate(338.178516 0) scale(0.996264)"/>
      <use xlink:href="#CMR17-56" transform="translate(378.664177 0) scale(0.996264)"/>
      <use xlink:href="#CMR17-5d" transform="translate(447.736607 0) scale(0.996264)"/>
     </g>
    </g>
   </g>
   <g id="matplotlib.axis_2">
    <g id="ytick_1">
     <g id="line2d_124">
      <path d="M 39.342989 156.814669 
L 236.874989 156.814669 
" clip-path="url(#p845c5f17ca)" style="fill: none; stroke: #b0b0b0; stroke-width: 0.2; stroke-linecap: square"/>
     </g>
     <g id="line2d_125">
      <defs>
       <path id="mbc9b549987" d="M 0 0 
L -3.5 0 
" style="stroke: #000000; stroke-width: 0.2"/>
      </defs>
      <g>
       <use xlink:href="#mbc9b549987" x="39.342989" y="156.814669" style="stroke: #000000; stroke-width: 0.2"/>
      </g>
     </g>
     <g id="text_9">
      <!-- $\mathdefault{−50}$ -->
      <g transform="translate(18.173848 159.236138) scale(0.07 -0.07)">
       <use xlink:href="#CMSY10-0" transform="scale(0.996264)"/>
       <use xlink:href="#CMR17-35" transform="translate(77.487468 0) scale(0.996264)"/>
       <use xlink:href="#CMR17-30" transform="translate(123.177945 0) scale(0.996264)"/>
      </g>
     </g>
    </g>
    <g id="ytick_2">
     <g id="line2d_126">
      <path d="M 39.342989 132.282469 
L 236.874989 132.282469 
" clip-path="url(#p845c5f17ca)" style="fill: none; stroke: #b0b0b0; stroke-width: 0.2; stroke-linecap: square"/>
     </g>
     <g id="line2d_127">
      <g>
       <use xlink:href="#mbc9b549987" x="39.342989" y="132.282469" style="stroke: #000000; stroke-width: 0.2"/>
      </g>
     </g>
     <g id="text_10">
      <!-- $\mathdefault{0}$ -->
      <g transform="translate(28.371751 134.703938) scale(0.07 -0.07)">
       <use xlink:href="#CMR17-30" transform="scale(0.996264)"/>
      </g>
     </g>
    </g>
    <g id="ytick_3">
     <g id="line2d_128">
      <path d="M 39.342989 107.750269 
L 236.874989 107.750269 
" clip-path="url(#p845c5f17ca)" style="fill: none; stroke: #b0b0b0; stroke-width: 0.2; stroke-linecap: square"/>
     </g>
     <g id="line2d_129">
      <g>
       <use xlink:href="#mbc9b549987" x="39.342989" y="107.750269" style="stroke: #000000; stroke-width: 0.2"/>
      </g>
     </g>
     <g id="text_11">
      <!-- $\mathdefault{50}$ -->
      <g transform="translate(24.400513 110.171738) scale(0.07 -0.07)">
       <use xlink:href="#CMR17-35" transform="scale(0.996264)"/>
       <use xlink:href="#CMR17-30" transform="translate(45.690477 0) scale(0.996264)"/>
      </g>
     </g>
    </g>
    <g id="ytick_4">
     <g id="line2d_130">
      <path d="M 39.342989 83.218069 
L 236.874989 83.218069 
" clip-path="url(#p845c5f17ca)" style="fill: none; stroke: #b0b0b0; stroke-width: 0.2; stroke-linecap: square"/>
     </g>
     <g id="line2d_131">
      <g>
       <use xlink:href="#mbc9b549987" x="39.342989" y="83.218069" style="stroke: #000000; stroke-width: 0.2"/>
      </g>
     </g>
     <g id="text_12">
      <!-- $\mathdefault{100}$ -->
      <g transform="translate(20.429276 85.639538) scale(0.07 -0.07)">
       <use xlink:href="#CMR17-31" transform="scale(0.996264)"/>
       <use xlink:href="#CMR17-30" transform="translate(45.690477 0) scale(0.996264)"/>
       <use xlink:href="#CMR17-30" transform="translate(91.380954 0) scale(0.996264)"/>
      </g>
     </g>
    </g>
    <g id="ytick_5">
     <g id="line2d_132">
      <path d="M 39.342989 58.685869 
L 236.874989 58.685869 
" clip-path="url(#p845c5f17ca)" style="fill: none; stroke: #b0b0b0; stroke-width: 0.2; stroke-linecap: square"/>
     </g>
     <g id="line2d_133">
      <g>
       <use xlink:href="#mbc9b549987" x="39.342989" y="58.685869" style="stroke: #000000; stroke-width: 0.2"/>
      </g>
     </g>
     <g id="text_13">
      <!-- $\mathdefault{150}$ -->
      <g transform="translate(20.429276 61.107338) scale(0.07 -0.07)">
       <use xlink:href="#CMR17-31" transform="scale(0.996264)"/>
       <use xlink:href="#CMR17-35" transform="translate(45.690477 0) scale(0.996264)"/>
       <use xlink:href="#CMR17-30" transform="translate(91.380954 0) scale(0.996264)"/>
      </g>
     </g>
    </g>
    <g id="ytick_6">
     <g id="line2d_134">
      <path d="M 39.342989 34.153669 
L 236.874989 34.153669 
" clip-path="url(#p845c5f17ca)" style="fill: none; stroke: #b0b0b0; stroke-width: 0.2; stroke-linecap: square"/>
     </g>
     <g id="line2d_135">
      <g>
       <use xlink:href="#mbc9b549987" x="39.342989" y="34.153669" style="stroke: #000000; stroke-width: 0.2"/>
      </g>
     </g>
     <g id="text_14">
      <!-- $\mathdefault{200}$ -->
      <g transform="translate(20.429276 36.575138) scale(0.07 -0.07)">
       <defs>
        <path id="CMR17-32" d="M 2669 989 
L 2554 989 
C 2490 536 2438 459 2413 420 
C 2381 369 1920 369 1830 369 
L 602 369 
C 832 619 1280 1072 1824 1597 
C 2214 1967 2669 2402 2669 3035 
C 2669 3790 2067 4224 1395 4224 
C 691 4224 262 3604 262 3030 
C 262 2780 448 2748 525 2748 
C 589 2748 781 2787 781 3010 
C 781 3207 614 3264 525 3264 
C 486 3264 448 3258 422 3245 
C 544 3790 915 4058 1306 4058 
C 1862 4058 2227 3617 2227 3035 
C 2227 2479 1901 2000 1536 1584 
L 262 146 
L 262 0 
L 2515 0 
L 2669 989 
z
" transform="scale(0.015625)"/>
       </defs>
       <use xlink:href="#CMR17-32" transform="scale(0.996264)"/>
       <use xlink:href="#CMR17-30" transform="translate(45.690477 0) scale(0.996264)"/>
       <use xlink:href="#CMR17-30" transform="translate(91.380954 0) scale(0.996264)"/>
      </g>
     </g>
    </g>
    <g id="ytick_7">
     <g id="line2d_136">
      <path d="M 39.342989 9.621469 
L 236.874989 9.621469 
" clip-path="url(#p845c5f17ca)" style="fill: none; stroke: #b0b0b0; stroke-width: 0.2; stroke-linecap: square"/>
     </g>
     <g id="line2d_137">
      <g>
       <use xlink:href="#mbc9b549987" x="39.342989" y="9.621469" style="stroke: #000000; stroke-width: 0.2"/>
      </g>
     </g>
     <g id="text_15">
      <!-- $\mathdefault{250}$ -->
      <g transform="translate(20.429276 12.042938) scale(0.07 -0.07)">
       <use xlink:href="#CMR17-32" transform="scale(0.996264)"/>
       <use xlink:href="#CMR17-35" transform="translate(45.690477 0) scale(0.996264)"/>
       <use xlink:href="#CMR17-30" transform="translate(91.380954 0) scale(0.996264)"/>
      </g>
     </g>
    </g>
    <g id="text_16">
     <!-- Uncertainty [$\%$] -->
     <g transform="translate(12.430386 110.632758) rotate(-90) scale(0.07 -0.07)">
      <defs>
       <path id="CMR17-55" d="M 3456 1433 
C 3456 579 2899 38 2291 38 
C 1965 38 1670 210 1491 477 
C 1286 783 1261 1178 1261 1401 
L 1261 3874 
C 1261 4160 1331 4160 1773 4160 
L 1773 4320 
C 1587 4320 1248 4320 1050 4320 
C 851 4320 512 4320 326 4320 
L 326 4160 
C 768 4160 838 4160 838 3874 
L 838 1433 
C 838 516 1536 -128 2278 -128 
C 3110 -128 3590 719 3590 1344 
L 3590 3766 
C 3590 4122 3917 4160 4102 4160 
L 4102 4326 
C 3955 4320 3686 4320 3526 4320 
C 3366 4320 3091 4320 2944 4326 
L 2944 4160 
C 3456 4160 3456 3861 3456 3702 
L 3456 1433 
z
" transform="scale(0.015625)"/>
       <path id="CMR17-63" d="M 2234 2240 
C 2112 2240 1933 2240 1933 2017 
C 1933 1838 2080 1787 2163 1787 
C 2208 1787 2394 1807 2394 2024 
C 2394 2467 1958 2803 1466 2803 
C 787 2803 211 2178 211 1363 
C 211 516 813 -64 1466 -64 
C 2259 -64 2458 677 2458 748 
C 2458 774 2451 793 2406 793 
C 2362 793 2355 787 2330 703 
C 2163 180 1798 51 1523 51 
C 1114 51 621 427 621 1369 
C 621 2338 1094 2688 1472 2688 
C 1722 2688 2093 2573 2234 2240 
z
" transform="scale(0.015625)"/>
       <path id="CMR17-74" d="M 966 2560 
L 1862 2560 
L 1862 2725 
L 966 2725 
L 966 3904 
L 851 3904 
C 838 3245 614 2668 70 2668 
L 70 2560 
L 627 2560 
L 627 771 
C 627 650 627 -64 1370 -64 
C 1747 -64 1965 306 1965 777 
L 1965 1140 
L 1850 1140 
L 1850 783 
C 1850 344 1677 51 1408 51 
C 1222 51 966 178 966 758 
L 966 2560 
z
" transform="scale(0.015625)"/>
       <path id="CMR17-61" d="M 2304 1653 
C 2304 2072 2304 2294 2035 2543 
C 1798 2752 1523 2816 1306 2816 
C 800 2816 435 2407 435 1971 
C 435 1728 627 1728 666 1728 
C 749 1728 896 1778 896 1954 
C 896 2112 774 2181 666 2181 
C 640 2181 608 2174 589 2168 
C 723 2592 1069 2714 1293 2714 
C 1613 2714 1965 2429 1965 1885 
L 1965 1600 
C 1587 1600 1133 1549 774 1357 
C 371 1133 256 813 256 570 
C 256 77 832 -64 1171 -64 
C 1523 -64 1850 139 1990 511 
C 2003 233 2182 -18 2464 -18 
C 2598 -18 2938 70 2938 567 
L 2938 920 
L 2822 920 
L 2822 562 
C 2822 178 2650 128 2566 128 
C 2304 128 2304 458 2304 738 
L 2304 1653 
z
M 1965 870 
C 1965 317 1568 38 1216 38 
C 896 38 646 275 646 570 
C 646 761 730 1100 1101 1305 
C 1408 1478 1760 1504 1965 1504 
L 1965 870 
z
" transform="scale(0.015625)"/>
       <path id="CMR17-69" d="M 992 3909 
C 992 4049 877 4170 730 4170 
C 589 4170 467 4056 467 3909 
C 467 3769 582 3648 730 3648 
C 870 3648 992 3763 992 3909 
z
M 243 2706 
L 243 2541 
C 602 2541 653 2502 653 2197 
L 653 427 
C 653 184 627 153 218 153 
L 218 -13 
C 371 0 646 0 806 0 
C 960 0 1222 0 1370 -13 
L 1370 153 
C 992 153 979 191 979 420 
L 979 2776 
L 243 2706 
z
" transform="scale(0.015625)"/>
       <path id="CMR17-25" d="M 4640 959 
C 4640 1698 4275 2240 3846 2240 
C 3411 2240 2970 1736 2970 959 
C 2970 183 3405 -320 3846 -320 
C 4275 -320 4640 215 4640 959 
z
M 3853 -218 
C 3686 -218 3270 -66 3270 959 
C 3270 1991 3686 2138 3853 2138 
C 4205 2138 4525 1634 4525 959 
C 4525 285 4205 -218 3853 -218 
z
M 4083 4577 
C 4128 4647 4134 4653 4134 4685 
C 4134 4761 4077 4800 4026 4800 
C 3962 4800 3936 4756 3891 4706 
C 3520 4190 3008 4134 2746 4134 
C 2106 4134 1715 4494 1594 4607 
C 1510 4682 1389 4800 1171 4800 
C 736 4800 294 4296 294 3519 
C 294 2743 730 2240 1171 2240 
C 1600 2240 1965 2778 1965 3527 
C 1965 3969 1830 4270 1811 4308 
C 2202 4064 2586 4032 2752 4032 
C 3162 4032 3456 4183 3616 4289 
L 3622 4283 
L 858 -84 
C 800 -174 800 -187 800 -206 
C 800 -276 858 -320 915 -320 
C 973 -320 992 -289 1037 -218 
L 4083 4577 
z
M 1178 2342 
C 1011 2342 595 2494 595 3519 
C 595 4551 1011 4698 1178 4698 
C 1530 4698 1850 4194 1850 3519 
C 1850 2845 1530 2342 1178 2342 
z
" transform="scale(0.015625)"/>
      </defs>
      <use xlink:href="#CMR17-55" transform="scale(0.996264)"/>
      <use xlink:href="#CMR17-6e" transform="translate(69.07243 0) scale(0.996264)"/>
      <use xlink:href="#CMR17-63" transform="translate(119.9678 0) scale(0.996264)"/>
      <use xlink:href="#CMR17-65" transform="translate(160.45346 0) scale(0.996264)"/>
      <use xlink:href="#CMR17-72" transform="translate(200.939121 0) scale(0.996264)"/>
      <use xlink:href="#CMR17-74" transform="translate(236.219888 0) scale(0.996264)"/>
      <use xlink:href="#CMR17-61" transform="translate(271.500656 0) scale(0.996264)"/>
      <use xlink:href="#CMR17-69" transform="translate(317.191133 0) scale(0.996264)"/>
      <use xlink:href="#CMR17-6e" transform="translate(342.062192 0) scale(0.996264)"/>
      <use xlink:href="#CMR17-74" transform="translate(390.355108 0) scale(0.996264)"/>
      <use xlink:href="#CMR17-79" transform="translate(423.033421 0) scale(0.996264)"/>
      <use xlink:href="#CMR17-5b" transform="translate(501.402304 0) scale(0.996264)"/>
      <use xlink:href="#CMR17-25" transform="translate(526.273362 0) scale(0.996264)"/>
      <use xlink:href="#CMR17-5d" transform="translate(603.192952 0) scale(0.996264)"/>
     </g>
    </g>
   </g>
   <g id="patch_3">
    <path d="M 39.342989 132.282469 
L 39.342989 131.277671 
L 108.928379 131.277671 
L 108.928379 133.777706 
L 114.281104 133.777706 
L 114.281104 134.662866 
L 119.633826 134.662866 
L 119.633826 135.267634 
L 124.986546 135.267634 
L 124.986546 134.212636 
L 130.339271 134.212636 
L 130.339271 131.4973 
L 135.691994 131.4973 
L 135.691994 131.006025 
L 141.044714 131.006025 
L 141.044714 133.641131 
L 146.397439 133.641131 
L 146.397439 133.50737 
L 151.750161 133.50737 
L 151.750161 132.930641 
L 157.102881 132.930641 
L 157.102881 133.023607 
L 162.455606 133.023607 
L 162.455606 133.376493 
L 167.808329 133.376493 
L 167.808329 133.238596 
L 173.161049 133.238596 
L 173.161049 132.763359 
L 178.513774 132.763359 
L 178.513774 133.703763 
L 183.866496 133.703763 
L 183.866496 133.442414 
L 189.219216 133.442414 
L 189.219216 132.282469 
L 194.571941 132.282469 
L 194.571941 132.282469 
L 199.924663 132.282469 
L 199.924663 132.282469 
L 204.758654 132.282469 
L 204.758654 132.282469 
L 209.592644 132.282469 
L 209.592644 132.282469 
L 214.426634 132.282469 
L 214.426634 132.282469 
L 218.329379 132.282469 
L 218.329379 132.282469 
L 222.373018 132.282469 
L 222.373018 132.282469 
L 225.650811 132.282469 
L 225.650811 132.282469 
L 229.03673 132.282469 
L 229.03673 132.282469 
L 232.38126 132.282469 
L 232.38126 132.282469 
L 234.378475 132.282469 
L 234.378475 132.282469 
L 236.874989 132.282469 
L 236.874989 132.282469 
" clip-path="url(#p845c5f17ca)" style="fill: none; opacity: 0.7; stroke: #1f77b4; stroke-width: 0.5; stroke-linejoin: miter"/>
   </g>
   <g id="patch_4">
    <path d="M 39.342989 132.282469 
L 39.342989 101.703248 
L 108.928379 101.703248 
L 108.928379 101.848908 
L 114.281104 101.848908 
L 114.281104 102.141905 
L 119.633826 102.141905 
L 119.633826 103.198802 
L 124.986546 103.198802 
L 124.986546 108.172927 
L 130.339271 108.172927 
L 130.339271 130.853796 
L 135.691994 130.853796 
L 135.691994 128.324884 
L 141.044714 128.324884 
L 141.044714 130.661495 
L 146.397439 130.661495 
L 146.397439 130.080149 
L 151.750161 130.080149 
L 151.750161 131.238789 
L 157.102881 131.238789 
L 157.102881 127.891402 
L 162.455606 127.891402 
L 162.455606 117.952986 
L 167.808329 117.952986 
L 167.808329 125.791972 
L 173.161049 125.791972 
L 173.161049 120.431966 
L 178.513774 120.431966 
L 178.513774 27.285998 
L 183.866496 27.285998 
L 183.866496 89.833566 
L 189.219216 89.833566 
L 189.219216 129.756543 
L 194.571941 129.756543 
L 194.571941 129.759762 
L 199.924663 129.759762 
L 199.924663 129.751785 
L 204.758654 129.751785 
L 204.758654 129.605541 
L 209.592644 129.605541 
L 209.592644 129.878875 
L 214.426634 129.878875 
L 214.426634 131.842348 
L 218.329379 131.842348 
L 218.329379 131.997767 
L 222.373018 131.997767 
L 222.373018 131.99941 
L 225.650811 131.99941 
L 225.650811 131.987479 
L 229.03673 131.987479 
L 229.03673 131.951525 
L 232.38126 131.951525 
L 232.38126 131.942423 
L 234.378475 131.942423 
L 234.378475 131.95479 
L 236.874989 131.95479 
L 236.874989 132.282469 
" clip-path="url(#p845c5f17ca)" style="fill: none; opacity: 0.7; stroke-dasharray: 1.85,0.8; stroke-dashoffset: 0; stroke: #ff7f0e; stroke-width: 0.5; stroke-linejoin: miter"/>
   </g>
   <g id="patch_5">
    <path d="M 39.342989 132.282469 
L 39.342989 131.385234 
L 108.928379 131.385234 
L 108.928379 131.313717 
L 114.281104 131.313717 
L 114.281104 131.073658 
L 119.633826 131.073658 
L 119.633826 130.731242 
L 124.986546 130.731242 
L 124.986546 131.188746 
L 130.339271 131.188746 
L 130.339271 131.740622 
L 135.691994 131.740622 
L 135.691994 131.296131 
L 141.044714 131.296131 
L 141.044714 130.864905 
L 146.397439 130.864905 
L 146.397439 131.033794 
L 151.750161 131.033794 
L 151.750161 131.064051 
L 157.102881 131.064051 
L 157.102881 131.07894 
L 162.455606 131.07894 
L 162.455606 131.011085 
L 167.808329 131.011085 
L 167.808329 130.951427 
L 173.161049 130.951427 
L 173.161049 130.889453 
L 178.513774 130.889453 
L 178.513774 130.732394 
L 183.866496 130.732394 
L 183.866496 130.402217 
L 189.219216 130.402217 
L 189.219216 131.6531 
L 194.571941 131.6531 
L 194.571941 131.228836 
L 199.924663 131.228836 
L 199.924663 130.080772 
L 204.758654 130.080772 
L 204.758654 131.614527 
L 209.592644 131.614527 
L 209.592644 131.341957 
L 214.426634 131.341957 
L 214.426634 131.579018 
L 218.329379 131.579018 
L 218.329379 131.412879 
L 222.373018 131.412879 
L 222.373018 129.046235 
L 225.650811 129.046235 
L 225.650811 122.456724 
L 229.03673 122.456724 
L 229.03673 122.323028 
L 232.38126 122.323028 
L 232.38126 123.279592 
L 234.378475 123.279592 
L 234.378475 120.299239 
L 236.874989 120.299239 
L 236.874989 132.282469 
" clip-path="url(#p845c5f17ca)" style="fill: none; opacity: 0.7; stroke-dasharray: 3.2,0.8,0.5,0.8; stroke-dashoffset: 0; stroke: #2ca02c; stroke-width: 0.5; stroke-linejoin: miter"/>
   </g>
   <g id="patch_6">
    <path d="M 39.342989 156.814669 
L 39.342989 9.621469 
" style="fill: none; stroke: #000000; stroke-width: 0.2; stroke-linejoin: miter; stroke-linecap: square"/>
   </g>
   <g id="patch_7">
    <path d="M 236.874989 156.814669 
L 236.874989 9.621469 
" style="fill: none; stroke: #000000; stroke-width: 0.2; stroke-linejoin: miter; stroke-linecap: square"/>
   </g>
   <g id="patch_8">
    <path d="M 39.342989 156.814669 
L 236.874989 156.814669 
" style="fill: none; stroke: #000000; stroke-width: 0.2; stroke-linejoin: miter; stroke-linecap: square"/>
   </g>
   <g id="patch_9">
    <path d="M 39.342989 9.621469 
L 236.874989 9.621469 
" style="fill: none; stroke: #000000; stroke-width: 0.2; stroke-linejoin: miter; stroke-linecap: square"/>
   </g>
   <g id="legend_1">
    <g id="patch_10">
     <path d="M 44.242989 49.601934 
L 145.005121 49.601934 
Q 146.405121 49.601934 146.405121 48.201934 
L 146.405121 14.521469 
Q 146.405121 13.121469 145.005121 13.121469 
L 44.242989 13.121469 
Q 42.842989 13.121469 42.842989 14.521469 
L 42.842989 48.201934 
Q 42.842989 49.601934 44.242989 49.601934 
z
" style="fill: #ffffff; opacity: 0.8; stroke: #cccccc; stroke-linejoin: miter"/>
    </g>
    <g id="line2d_138">
     <path d="M 45.642989 19.688162 
L 59.642989 19.688162 
" style="fill: none; stroke: #1f77b4; stroke-opacity: 0.7; stroke-width: 0.5; stroke-linecap: square"/>
    </g>
    <g id="text_17">
     <!-- $^{238}$U$(n,f)$$-$$^{238}$U$(n,\gamma)$ -->
     <g transform="translate(65.242989 22.138162) scale(0.07 -0.07)">
      <defs>
       <path id="CMR17-38" d="M 1741 2264 
C 2144 2467 2554 2773 2554 3263 
C 2554 3841 1990 4179 1472 4179 
C 890 4179 378 3759 378 3180 
C 378 3021 416 2747 666 2505 
C 730 2442 998 2251 1171 2130 
C 883 1983 211 1634 211 934 
C 211 279 838 -128 1459 -128 
C 2144 -128 2720 362 2720 1010 
C 2720 1590 2330 1857 2074 2029 
L 1741 2264 
z
M 902 2822 
C 851 2854 595 3051 595 3351 
C 595 3739 998 4032 1459 4032 
C 1965 4032 2336 3676 2336 3262 
C 2336 2669 1670 2331 1638 2331 
C 1632 2331 1626 2331 1574 2370 
L 902 2822 
z
M 2080 1519 
C 2176 1449 2483 1240 2483 851 
C 2483 381 2010 25 1472 25 
C 890 25 448 438 448 940 
C 448 1443 838 1862 1280 2060 
L 2080 1519 
z
" transform="scale(0.015625)"/>
       <path id="CMR17-28" d="M 1958 -1561 
C 1958 -1555 1958 -1542 1939 -1523 
C 1645 -1224 858 -407 858 1581 
C 858 3569 1632 4379 1946 4697 
C 1946 4704 1958 4717 1958 4736 
C 1958 4755 1939 4768 1914 4768 
C 1843 4768 1299 4296 986 3594 
C 666 2887 576 2199 576 1588 
C 576 1128 621 351 1005 -471 
C 1312 -1135 1837 -1600 1914 -1600 
C 1946 -1600 1958 -1587 1958 -1561 
z
" transform="scale(0.015625)"/>
       <path id="CMMI12-6e" d="M 1318 1871 
C 1331 1910 1491 2229 1728 2433 
C 1894 2586 2112 2689 2362 2689 
C 2618 2689 2707 2497 2707 2242 
C 2707 1878 2445 1150 2317 805 
C 2259 651 2227 568 2227 453 
C 2227 166 2426 -64 2733 -64 
C 3328 -64 3552 875 3552 913 
C 3552 945 3526 971 3488 971 
C 3430 971 3424 952 3392 843 
C 3245 319 3002 64 2752 64 
C 2688 64 2586 64 2586 269 
C 2586 429 2656 621 2694 710 
C 2822 1063 3091 1780 3091 2145 
C 3091 2528 2867 2816 2381 2816 
C 1811 2816 1510 2415 1395 2255 
C 1376 2618 1114 2816 832 2816 
C 627 2816 486 2695 378 2478 
C 262 2248 173 1865 173 1839 
C 173 1814 198 1782 243 1782 
C 294 1782 301 1788 339 1935 
C 442 2325 557 2689 813 2689 
C 960 2689 1011 2586 1011 2395 
C 1011 2254 947 2005 902 1807 
L 723 1118 
C 698 996 627 709 595 594 
C 550 428 480 128 480 96 
C 480 6 550 -64 646 -64 
C 723 -64 813 -26 864 70 
C 877 102 934 326 966 453 
L 1107 1028 
L 1318 1871 
z
" transform="scale(0.015625)"/>
       <path id="CMMI12-3b" d="M 1248 -31 
C 1248 343 1126 619 864 619 
C 659 619 557 453 557 313 
C 557 172 653 0 870 0 
C 954 0 1024 26 1082 83 
C 1094 96 1101 96 1107 96 
C 1120 96 1120 5 1120 -27 
C 1120 -240 1082 -659 710 -1080 
C 640 -1157 640 -1170 640 -1183 
C 640 -1216 672 -1248 704 -1248 
C 755 -1248 1248 -771 1248 -31 
z
" transform="scale(0.015625)"/>
       <path id="CMMI12-66" d="M 2854 2566 
C 2982 2566 3034 2566 3034 2688 
C 3034 2752 2982 2752 2867 2752 
L 2349 2752 
C 2470 3429 2560 3897 2611 4107 
C 2650 4265 2784 4416 2950 4416 
C 3085 4416 3219 4358 3283 4298 
C 3034 4272 2957 4082 2957 3969 
C 2957 3837 3053 3759 3174 3759 
C 3302 3759 3494 3870 3494 4119 
C 3494 4393 3226 4544 2944 4544 
C 2669 4544 2400 4334 2272 4078 
C 2157 3848 2093 3611 1946 2752 
L 1517 2752 
C 1395 2752 1331 2752 1331 2637 
C 1331 2566 1370 2566 1498 2566 
L 1907 2566 
C 1792 1976 1530 542 1382 -137 
C 1274 -689 1178 -1152 858 -1152 
C 838 -1152 653 -1152 538 -1031 
C 864 -1005 864 -726 864 -720 
C 864 -593 768 -517 646 -517 
C 518 -517 326 -625 326 -867 
C 326 -1140 608 -1280 858 -1280 
C 1510 -1280 1779 -118 1850 199 
C 1965 688 2278 2376 2310 2566 
L 2854 2566 
z
" transform="scale(0.015625)"/>
       <path id="CMR17-29" d="M 1683 1581 
C 1683 2040 1638 2817 1254 3639 
C 947 4303 422 4768 346 4768 
C 326 4768 301 4761 301 4729 
C 301 4717 307 4710 314 4697 
C 621 4378 1402 3568 1402 1584 
C 1402 -407 627 -1217 314 -1537 
C 307 -1549 301 -1556 301 -1568 
C 301 -1600 326 -1600 346 -1600 
C 416 -1600 960 -1128 1274 -426 
C 1594 281 1683 969 1683 1581 
z
" transform="scale(0.015625)"/>
       <path id="CMMI12-d" d="M 2419 760 
C 2406 1071 2394 1561 2150 2133 
C 2022 2452 1805 2788 1338 2788 
C 550 2788 122 1790 122 1625 
C 122 1567 166 1567 186 1567 
C 243 1567 243 1580 275 1663 
C 410 2057 819 2368 1261 2368 
C 2150 2368 2278 1383 2278 754 
C 2278 352 2234 220 2195 92 
C 2074 -302 1862 -1090 1862 -1268 
C 1862 -1319 1882 -1376 1933 -1376 
C 2029 -1376 2086 -1166 2157 -912 
C 2310 -353 2349 -73 2381 181 
C 2400 334 2765 1384 3270 2382 
C 3315 2483 3405 2655 3405 2674 
C 3405 2680 3398 2725 3341 2725 
C 3328 2725 3296 2725 3283 2699 
C 3270 2687 3046 2254 2854 1822 
C 2758 1606 2630 1320 2419 760 
z
" transform="scale(0.015625)"/>
      </defs>
      <use xlink:href="#CMR17-32" transform="translate(0 36.153639) scale(0.697382)"/>
      <use xlink:href="#CMR17-33" transform="translate(31.983182 36.153639) scale(0.697382)"/>
      <use xlink:href="#CMR17-38" transform="translate(63.966364 36.153639) scale(0.697382)"/>
      <use xlink:href="#CMR17-55" transform="translate(96.447678 0) scale(0.996264)"/>
      <use xlink:href="#CMR17-28" transform="translate(165.520108 0) scale(0.996264)"/>
      <use xlink:href="#CMMI12-6e" transform="translate(200.800876 0) scale(0.996264)"/>
      <use xlink:href="#CMMI12-3b" transform="translate(259.030923 0) scale(0.996264)"/>
      <use xlink:href="#CMMI12-66" transform="translate(302.732505 0) scale(0.996264)"/>
      <use xlink:href="#CMR17-29" transform="translate(361.45281 0) scale(0.996264)"/>
      <use xlink:href="#CMSY10-0" transform="translate(396.733578 0) scale(0.996264)"/>
      <use xlink:href="#CMR17-32" transform="translate(474.221045 36.153639) scale(0.697382)"/>
      <use xlink:href="#CMR17-33" transform="translate(506.204227 36.153639) scale(0.697382)"/>
      <use xlink:href="#CMR17-38" transform="translate(538.187409 36.153639) scale(0.697382)"/>
      <use xlink:href="#CMR17-55" transform="translate(570.668723 0) scale(0.996264)"/>
      <use xlink:href="#CMR17-28" transform="translate(639.741153 0) scale(0.996264)"/>
      <use xlink:href="#CMMI12-6e" transform="translate(675.021921 0) scale(0.996264)"/>
      <use xlink:href="#CMMI12-3b" transform="translate(733.251968 0) scale(0.996264)"/>
      <use xlink:href="#CMMI12-d" transform="translate(776.953551 0) scale(0.996264)"/>
      <use xlink:href="#CMR17-29" transform="translate(832.972119 0) scale(0.996264)"/>
     </g>
    </g>
    <g id="line2d_139">
     <path d="M 45.642989 31.148317 
L 59.642989 31.148317 
" style="fill: none; stroke-dasharray: 1.85,0.8; stroke-dashoffset: 0; stroke: #ff7f0e; stroke-opacity: 0.7; stroke-width: 0.5"/>
    </g>
    <g id="text_18">
     <!-- $^{238}$U$(n,f)$ -->
     <g transform="translate(65.242989 33.598317) scale(0.07 -0.07)">
      <use xlink:href="#CMR17-32" transform="translate(0 36.153639) scale(0.697382)"/>
      <use xlink:href="#CMR17-33" transform="translate(31.983182 36.153639) scale(0.697382)"/>
      <use xlink:href="#CMR17-38" transform="translate(63.966364 36.153639) scale(0.697382)"/>
      <use xlink:href="#CMR17-55" transform="translate(96.447678 0) scale(0.996264)"/>
      <use xlink:href="#CMR17-28" transform="translate(165.520108 0) scale(0.996264)"/>
      <use xlink:href="#CMMI12-6e" transform="translate(200.800876 0) scale(0.996264)"/>
      <use xlink:href="#CMMI12-3b" transform="translate(259.030923 0) scale(0.996264)"/>
      <use xlink:href="#CMMI12-66" transform="translate(302.732505 0) scale(0.996264)"/>
      <use xlink:href="#CMR17-29" transform="translate(361.45281 0) scale(0.996264)"/>
     </g>
    </g>
    <g id="line2d_140">
     <path d="M 45.642989 42.608472 
L 59.642989 42.608472 
" style="fill: none; stroke-dasharray: 3.2,0.8,0.5,0.8; stroke-dashoffset: 0; stroke: #2ca02c; stroke-opacity: 0.7; stroke-width: 0.5"/>
    </g>
    <g id="text_19">
     <!-- $^{238}$U$(n,\gamma)$ -->
     <g transform="translate(65.242989 45.058472) scale(0.07 -0.07)">
      <use xlink:href="#CMR17-32" transform="translate(0 36.153639) scale(0.697382)"/>
      <use xlink:href="#CMR17-33" transform="translate(31.983182 36.153639) scale(0.697382)"/>
      <use xlink:href="#CMR17-38" transform="translate(63.966364 36.153639) scale(0.697382)"/>
      <use xlink:href="#CMR17-55" transform="translate(96.447678 0) scale(0.996264)"/>
      <use xlink:href="#CMR17-28" transform="translate(165.520108 0) scale(0.996264)"/>
      <use xlink:href="#CMMI12-6e" transform="translate(200.800876 0) scale(0.996264)"/>
      <use xlink:href="#CMMI12-3b" transform="translate(259.030923 0) scale(0.996264)"/>
      <use xlink:href="#CMMI12-d" transform="translate(302.732505 0) scale(0.996264)"/>
      <use xlink:href="#CMR17-29" transform="translate(358.751073 0) scale(0.996264)"/>
     </g>
    </g>
   </g>
  </g>
 </g>
 <defs>
  <clipPath id="p845c5f17ca">
   <rect x="39.342989" y="9.621469" width="197.532" height="147.1932"/>
  </clipPath>
 </defs>
</svg>
